<?xml version="1.0" encoding="UTF-8"?>
<svg width="90px" height="85px" viewBox="0 0 90 85" version="1.1" xmlns="http://www.w3.org/2000/svg" xmlns:xlink="http://www.w3.org/1999/xlink">
    <!-- Generator: Sketch 49.3 (51167) - http://www.bohemiancoding.com/sketch -->
    <title>Group</title>
    <desc>Created with Sketch.</desc>
    <defs></defs>
    <g id="Page-1" stroke="none" stroke-width="1" fill="none" fill-rule="evenodd">
        <g id="Apple-TV-Copy-9" transform="translate(-86.000000, -75.000000)" fill="#2C2C2C">
            <g id="Group" transform="translate(86.000000, 75.000000)">
                <path d="M7.10416667,8.8725 L14.415,8.8725 L14.415,1.355 L19.4783333,1.355 L19.4783333,20.8333333 L14.415,20.8333333 L14.415,12.7991667 L7.10416667,12.7991667 L7.10416667,20.8333333 L2.04083333,20.8333333 L2.04083333,1.355 L7.10416667,1.355 L7.10416667,8.8725 Z M35.4775,11.0941667 C35.4775,11.8691705 35.6238874,12.5838856 35.9166667,13.2383333 C36.2094459,13.8927811 36.6055531,14.4611087 37.105,14.9433333 C37.6044469,15.425558 38.1856911,15.8001376 38.84875,16.0670833 C39.5118089,16.3340291 40.2136074,16.4675 40.9541667,16.4675 C41.6947259,16.4675 42.3965245,16.3340291 43.0595833,16.0670833 C43.7226422,15.8001376 44.3081919,15.425558 44.81625,14.9433333 C45.3243081,14.4611087 45.7247208,13.8927811 46.0175,13.2383333 C46.3102792,12.5838856 46.4566667,11.8691705 46.4566667,11.0941667 C46.4566667,10.3191628 46.3102792,9.60444772 46.0175,8.95 C45.7247208,8.29555228 45.3243081,7.72722463 44.81625,7.245 C44.3081919,6.76277537 43.7226422,6.38819578 43.0595833,6.12125 C42.3965245,5.85430422 41.6947259,5.72083333 40.9541667,5.72083333 C40.2136074,5.72083333 39.5118089,5.85430422 38.84875,6.12125 C38.1856911,6.38819578 37.6044469,6.76277537 37.105,7.245 C36.6055531,7.72722463 36.2094459,8.29555228 35.9166667,8.95 C35.6238874,9.60444772 35.4775,10.3191628 35.4775,11.0941667 Z M30.1816667,11.0941667 C30.1816667,9.64749277 30.4486084,8.29986735 30.9825,7.05125 C31.5163916,5.80263265 32.2569397,4.71333798 33.2041667,3.78333333 C34.1513936,2.85332868 35.2837434,2.12569707 36.60125,1.60041667 C37.9187566,1.07513626 39.3697143,0.8125 40.9541667,0.8125 C42.5213967,0.8125 43.9680489,1.07513626 45.2941667,1.60041667 C46.6202844,2.12569707 47.7612452,2.85332868 48.7170833,3.78333333 C49.6729214,4.71333798 50.4177751,5.80263265 50.9516667,7.05125 C51.4855582,8.29986735 51.7525,9.64749277 51.7525,11.0941667 C51.7525,12.5408406 51.4855582,13.888466 50.9516667,15.1370833 C50.4177751,16.3857007 49.6729214,17.4749954 48.7170833,18.405 C47.7612452,19.3350047 46.6202844,20.0626363 45.2941667,20.5879167 C43.9680489,21.1131971 42.5213967,21.3758333 40.9541667,21.3758333 C39.3697143,21.3758333 37.9187566,21.1131971 36.60125,20.5879167 C35.2837434,20.0626363 34.1513936,19.3350047 33.2041667,18.405 C32.2569397,17.4749954 31.5163916,16.3857007 30.9825,15.1370833 C30.4486084,13.888466 30.1816667,12.5408406 30.1816667,11.0941667 Z M65.4008333,1.355 L68.7591667,13.9358333 L72.8925,1.355 L76.9225,1.355 L81.0558333,13.9358333 L84.4141667,1.355 L89.71,1.355 L83.8975,20.8333333 L78.7308333,20.8333333 L74.9075,9.54416667 L71.0841667,20.8333333 L65.9175,20.8333333 L60.105,1.355 L65.4008333,1.355 Z" id="HOW"></path>
                <path d="M1.1625,52.5 L4.46916667,33.0216667 L9.48083333,33.0216667 L13.3816667,43.4066667 L17.2566667,33.0216667 L22.2683333,33.0216667 L25.575,52.5 L20.5375,52.5 L18.8583333,41.2883333 L14.26,52.5 L12.245,52.5 L7.87916667,41.2883333 L6.2,52.5 L1.1625,52.5 Z M39.37,45.2666667 L37.0966667,38.7825 L34.8233333,45.2666667 L39.37,45.2666667 Z M40.7133333,49.1158333 L33.48,49.1158333 L32.3175,52.5 L26.9183333,52.5 L34.3325,33.0216667 L39.8608333,33.0216667 L47.275,52.5 L41.8758333,52.5 L40.7133333,49.1158333 Z M49.4966667,52.5 L49.4966667,33.0216667 L54.56,33.0216667 L63.9116667,44.9308333 L63.9116667,33.0216667 L68.9491667,33.0216667 L68.9491667,52.5 L63.9116667,52.5 L54.56,40.5908333 L54.56,52.5 L49.4966667,52.5 Z M77.7325,43.1483333 L70.6283333,33.0216667 L76.6733333,33.0216667 L80.29,38.3433333 L83.8808333,33.0216667 L89.9258333,33.0216667 L82.7958333,43.1483333 L82.7958333,52.5 L77.7325,52.5 L77.7325,43.1483333 Z" id="MANY"></path>
                <path d="M11.625,64.6883333 L11.625,78.1991667 C11.625,78.7675028 11.5948614,79.2927754 11.5345833,79.775 C11.4743053,80.2572246 11.3752785,80.6705538 11.2375,81.015 C11.01361,81.5661139 10.7079186,82.0698588 10.3204167,82.52625 C9.93291473,82.9826412 9.48083592,83.3701373 8.96416667,83.68875 C8.44749742,84.0073627 7.87486425,84.2570824 7.24625,84.4379167 C6.61763575,84.6187509 5.95889233,84.7091667 5.27,84.7091667 C3.18610069,84.7091667 1.48972877,83.7533429 0.180833333,81.8416667 L3.4875,78.4575 C3.57361154,79.0430585 3.76305409,79.5080538 4.05583333,79.8525 C4.34861257,80.1969462 4.71027562,80.3691667 5.14083333,80.3691667 C6.08806029,80.3691667 6.56166667,79.6200075 6.56166667,78.1216667 L6.56166667,64.6883333 L11.625,64.6883333 Z M26.2333335,74.4275 C26.2333335,75.2025039 26.3797209,75.9172189 26.6725002,76.5716667 C26.9652794,77.2261144 27.3613866,77.794442 27.8608335,78.2766667 C28.3602804,78.7588913 28.9415246,79.1334709 29.6045835,79.4004167 C30.2676424,79.6673624 30.9694409,79.8008333 31.7100002,79.8008333 C32.4505594,79.8008333 33.152358,79.6673624 33.8154168,79.4004167 C34.4784757,79.1334709 35.0640254,78.7588913 35.5720835,78.2766667 C36.0801416,77.794442 36.4805543,77.2261144 36.7733335,76.5716667 C37.0661127,75.9172189 37.2125002,75.2025039 37.2125002,74.4275 C37.2125002,73.6524961 37.0661127,72.937781 36.7733335,72.2833333 C36.4805543,71.6288856 36.0801416,71.060558 35.5720835,70.5783333 C35.0640254,70.0961087 34.4784757,69.7215291 33.8154168,69.4545833 C33.152358,69.1876376 32.4505594,69.0541667 31.7100002,69.0541667 C30.9694409,69.0541667 30.2676424,69.1876376 29.6045835,69.4545833 C28.9415246,69.7215291 28.3602804,70.0961087 27.8608335,70.5783333 C27.3613866,71.060558 26.9652794,71.6288856 26.6725002,72.2833333 C26.3797209,72.937781 26.2333335,73.6524961 26.2333335,74.4275 Z M20.9375002,74.4275 C20.9375002,72.9808261 21.2044419,71.6332007 21.7383335,70.3845833 C22.2722251,69.135966 23.0127732,68.0466713 23.9600002,67.1166667 C24.9072271,66.186662 26.0395769,65.4590304 27.3570835,64.93375 C28.6745901,64.4084696 30.1255478,64.1458333 31.7100002,64.1458333 C33.2772302,64.1458333 34.7238824,64.4084696 36.0500002,64.93375 C37.3761179,65.4590304 38.5170787,66.186662 39.4729168,67.1166667 C40.4287549,68.0466713 41.1736086,69.135966 41.7075002,70.3845833 C42.2413917,71.6332007 42.5083335,72.9808261 42.5083335,74.4275 C42.5083335,75.8741739 42.2413917,77.2217993 41.7075002,78.4704167 C41.1736086,79.719034 40.4287549,80.8083287 39.4729168,81.7383333 C38.5170787,82.668338 37.3761179,83.3959696 36.0500002,83.92125 C34.7238824,84.4465304 33.2772302,84.7091667 31.7100002,84.7091667 C30.1255478,84.7091667 28.6745901,84.4465304 27.3570835,83.92125 C26.0395769,83.3959696 24.9072271,82.668338 23.9600002,81.7383333 C23.0127732,80.8083287 22.2722251,79.719034 21.7383335,78.4704167 C21.2044419,77.2217993 20.9375002,75.8741739 20.9375002,74.4275 Z M56.8583337,80.24 L57.969167,80.24 C59.2436178,80.24 60.1563865,80.0763905 60.7075003,79.7491667 C61.2586142,79.4219428 61.534167,78.8966703 61.534167,78.1733333 C61.534167,77.4499964 61.2586142,76.9247239 60.7075003,76.5975 C60.1563865,76.2702761 59.2436178,76.1066667 57.969167,76.1066667 L56.8583337,76.1066667 L56.8583337,80.24 Z M56.8583337,72.335 L57.7883337,72.335 C59.372786,72.335 60.1650003,71.7063952 60.1650003,70.4491667 C60.1650003,69.1919382 59.372786,68.5633333 57.7883337,68.5633333 L56.8583337,68.5633333 L56.8583337,72.335 Z M51.7950003,64.6883333 L59.3383337,64.6883333 C61.1294537,64.6883333 62.4899957,65.1188846 63.4200003,65.98 C64.350005,66.8411154 64.8150003,68.081103 64.8150003,69.7 C64.8150003,70.6816716 64.6384743,71.4954134 64.285417,72.14125 C63.9323597,72.7870866 63.3941706,73.3338866 62.6708337,73.7816667 C63.3941706,73.9194451 64.0098589,74.1304152 64.517917,74.4145833 C65.0259751,74.6987514 65.4393043,75.0474979 65.757917,75.4608333 C66.0765297,75.8741687 66.3047219,76.3391641 66.4425003,76.8558333 C66.5802788,77.3725026 66.649167,77.9236082 66.649167,78.5091667 C66.649167,79.421949 66.489863,80.2313854 66.1712503,80.9375 C65.8526376,81.6436146 65.4048643,82.2377754 64.827917,82.72 C64.2509697,83.2022246 63.5491711,83.5638877 62.7225003,83.805 C61.8958295,84.0461123 60.9658388,84.1666667 59.9325003,84.1666667 L51.7950003,84.1666667 L51.7950003,64.6883333 Z M86.4500005,69.6741667 C85.8988866,69.2263866 85.347781,68.8948622 84.7966671,68.6795833 C84.2455533,68.4643045 83.7116697,68.3566667 83.1950005,68.3566667 C82.5405528,68.3566667 82.0066692,68.5116651 81.5933338,68.8216667 C81.1799984,69.1316682 80.9733338,69.5363864 80.9733338,70.0358333 C80.9733338,70.3802795 81.0766661,70.6644433 81.2833338,70.8883333 C81.4900015,71.1122233 81.7612488,71.3059714 82.0970838,71.4695833 C82.4329188,71.6331953 82.8118039,71.7752772 83.2337505,71.8958333 C83.655697,72.0163895 84.0733317,72.1455549 84.4866671,72.2833333 C86.1400087,72.8344472 87.3498578,73.5706898 88.1162505,74.4920833 C88.8826432,75.4134768 89.2658338,76.6147148 89.2658338,78.0958333 C89.2658338,79.0947272 89.0979188,79.9988848 88.7620838,80.8083333 C88.4262488,81.6177818 87.9354204,82.3109693 87.2895838,82.8879167 C86.6437472,83.464864 85.8515329,83.9126373 84.9129171,84.23125 C83.9743013,84.5498627 82.9108398,84.7091667 81.7225005,84.7091667 C79.2597104,84.7091667 76.9777888,83.9772295 74.8766671,82.5133333 L77.0466671,78.4316667 C77.8044487,79.1033367 78.5536079,79.6027761 79.2941671,79.93 C80.0347264,80.2572239 80.7666635,80.4208333 81.4900005,80.4208333 C82.3166713,80.4208333 82.9323596,80.2313908 83.3370838,79.8525 C83.7418081,79.4736092 83.9441671,79.043058 83.9441671,78.5608333 C83.9441671,78.2680541 83.892501,78.0140289 83.7891671,77.79875 C83.6858333,77.5834711 83.5136128,77.3854176 83.2725005,77.2045833 C83.0313882,77.0237491 82.7170857,76.8558341 82.3295838,76.7008333 C81.9420819,76.5458326 81.472781,76.3736121 80.9216671,76.1841667 C80.2672194,75.977499 79.6256981,75.7493068 78.9970838,75.4995833 C78.3684696,75.2498599 77.8087529,74.9183354 77.3179171,74.505 C76.8270814,74.0916646 76.4309742,73.5706976 76.1295838,72.9420833 C75.8281934,72.3134691 75.6775005,71.5169493 75.6775005,70.5525 C75.6775005,69.5880507 75.8368044,68.7140317 76.1554171,67.9304167 C76.4740298,67.1468016 76.9218031,66.4751417 77.4987505,65.9154167 C78.0756978,65.3556916 78.7818019,64.9208349 79.6170838,64.6108333 C80.4523658,64.3008318 81.386662,64.1458333 82.4200005,64.1458333 C83.3844497,64.1458333 84.3919397,64.2793042 85.4425005,64.54625 C86.4930613,64.8131958 87.5005512,65.2049974 88.4650005,65.7216667 L86.4500005,69.6741667 Z" id="JOBS"></path>
            </g>
        </g>
    </g>
</svg>